<?xml version="1.0" encoding="utf-8"?>
<!-- Generator: Adobe Illustrator 20.1.0, SVG Export Plug-In . SVG Version: 6.00 Build 0)  -->
<svg version="1.1" id="Calque_1" xmlns="http://www.w3.org/2000/svg" xmlns:xlink="http://www.w3.org/1999/xlink" x="0px" y="0px"
	 viewBox="0 0 975 301.5" style="enable-background:new 0 0 975 301.5;" xml:space="preserve">
<style type="text/css">
	.st0{fill:#777572;}
	.st1{fill:#A92B1C;}
	.st2{display:none;fill:#106470;}
	.st3{display:none;}
	.st4{display:inline;fill:#FEFFFE;}
	.st5{display:inline;fill:#FFFFFF;}
	.st6{display:inline;}
	.st7{fill:#FEFFFE;}
	.st8{display:inline;fill:#AB2C29;}
	.st9{display:inline;fill:#A92B1C;}
	.st10{display:inline;fill:#77777A;}
	.st11{display:inline;fill:#777572;}
</style>
<polygon class="st0" points="32.6,198.7 32.6,83.5 170.8,83.5 170.8,198.7 102.4,84.2 "/>
<polygon class="st1" points="32.3,217.8 171.1,217.8 102.4,103.1 "/>
<polygon class="st2" points="32.3,217.8 171.1,217.8 102.4,103.1 "/>
<g>
	<g>
		<polygon class="st0" points="194.6,115.6 194.6,83.8 334.1,83.8 334.1,115.6 280.1,115.6 280.1,217.7 247.9,217.7 247.9,115.6 		
			"/>
		<rect x="493.6" y="83.8" class="st0" width="32.2" height="133.9"/>
		<path class="st0" d="M478.4,166.7v-32.2h-104v-7.8c0,0,0.7-10.4,11.5-10.7c4.8,0,92.1,0,92.1,0V83.8c0,0-92.9,0-92.5,0
			c-22.2,0-44,22.9-44,43.7c0,0,0,38.8,0,48.8c0,20.7,20.7,41.4,42.5,41.4c11.5,0,94.3,0,94.3,0v-31.8h-94c0,0-10.7-0.4-10-12.6
			c-0.4-4.4-0.4-7-0.4-7L478.4,166.7z"/>
		<path class="st0" d="M593.4,83.4h49.2l-77,64.4c0,0-6.3,2.6-0.4,5.9c3.7,3.3,77.3,63.6,77.3,63.6h-49.2l-48.8-39.6
			c-14.8-15.5-22.2-32.6-0.4-52.9C543.9,125.2,593.4,83.4,593.4,83.4z"/>
		<path class="st0" d="M656,217.7h30.7V116c0,0,2.6-0.7,3.7,1.8c1.1,2.6,28.1,72.5,28.1,72.5s7,25.5,35.5,27.4
			c14.4-1.1,32.9-5.2,38.5-31.4c0-8.1,0-102.1,0-102.1h-32.6c0,0,0.4,95.5,0,97.7c-0.4,2.2-8.5,11.5-13.7-6.3
			c-1.6-4.2-15.5-42.5-26.6-72.5c-8-10.6-18.3-18.3-31.5-19.3c-3,0-29.2,3-31.8,31.8C657.1,120.8,656,217.7,656,217.7z"/>
		<path class="st0" d="M795.1,218.1h35.1l38.5-101l40,100.6h34l-42.2-107.3c0,0-7.4-27-32.9-26.6c-17.8,0.4-27.7,16.3-29.6,20.7
			C836.1,108.9,795.1,218.1,795.1,218.1z"/>
	</g>
</g>
<g class="st3">
	<polygon class="st4" points="33.9,142.8 33.9,27.6 172.2,27.6 172.2,142.8 103.8,28.3 	"/>
	<polygon class="st5" points="33.7,161.9 172.4,161.9 103.8,47.2 	"/>
	<g class="st6">
		<g>
			<polygon class="st7" points="196,59.7 196,27.9 335.5,27.9 335.5,59.7 281.4,59.7 281.4,161.8 249.3,161.8 249.3,59.7 			"/>
			<rect x="494.9" y="27.9" class="st7" width="32.2" height="133.9"/>
			<path class="st7" d="M479.7,110.8V78.6h-104v-7.8c0,0,0.7-10.4,11.5-10.7c4.8,0,92.1,0,92.1,0V27.9c0,0-92.9,0-92.5,0
				c-22.2,0-44,22.9-44,43.7c0,0,0,38.8,0,48.8c0,20.7,20.7,41.4,42.5,41.4c11.5,0,94.3,0,94.3,0V130h-94c0,0-10.7-0.4-10-12.6
				c-0.4-4.4-0.4-7-0.4-7L479.7,110.8z"/>
			<path class="st7" d="M594.8,27.5H644l-77,64.4c0,0-6.3,2.6-0.4,5.9c3.7,3.3,77.3,63.6,77.3,63.6h-49.2L546,121.9
				c-14.8-15.5-22.2-32.6-0.4-52.9C545.2,69.3,594.8,27.5,594.8,27.5z"/>
			<path class="st7" d="M657.3,161.8H688V60.1c0,0,2.6-0.7,3.7,1.8c1.1,2.6,28.1,72.5,28.1,72.5s7,25.5,35.5,27.4
				c14.4-1.1,32.9-5.2,38.5-31.4c0-8.1,0-102.1,0-102.1h-32.6c0,0,0.4,95.5,0,97.7c-0.4,2.2-8.5,11.5-13.7-6.3
				c-1.6-4.2-15.5-42.5-26.6-72.5c-8-10.6-18.3-18.3-31.5-19.3c-3,0-29.2,3-31.8,31.8C658.4,64.9,657.3,161.8,657.3,161.8z"/>
			<path class="st7" d="M796.4,162.2h35.1l38.5-101l40,100.6h34L901.9,54.5c0,0-7.4-27-32.9-26.6c-17.8,0.4-27.7,16.3-29.6,20.7
				C837.5,53,796.4,162.2,796.4,162.2z"/>
		</g>
	</g>
</g>
<g id="Pantone" class="st3">
	<rect x="-337.6" y="-103.5" class="st8" width="133.5" height="133.5"/>
	<rect x="-202.5" y="-103.5" class="st9" width="133.5" height="133.5"/>
	<rect x="-333.9" y="90" class="st10" width="126" height="126"/>
	<rect x="-198.8" y="87.4" class="st11" width="126" height="126"/>
</g>
</svg>
